<?xml version="1.0" encoding="iso-8859-1"?>
<!-- Generator: Adobe Illustrator 19.0.0, SVG Export Plug-In . SVG Version: 6.00 Build 0)  -->
<svg version="1.1" id="Layer_1" xmlns="http://www.w3.org/2000/svg" xmlns:xlink="http://www.w3.org/1999/xlink" x="0px" y="0px"
	 viewBox="0 0 512 512" style="enable-background:new 0 0 512 512;" xml:space="preserve">
<circle style="fill:#2D4452;" cx="256" cy="256" r="256"/>
<g>
	<path style="fill:#233540;" d="M125.744,476.364C163.908,498.976,208.42,512,256,512c114.636,0,211.66-75.36,244.272-179.236
		l-68.284-168.852c-0.016-1.424-0.424-2.756-1.104-3.916c0,0,0,0,0-0.004c-0.68-1.156-1.624-2.124-2.772-2.82
		c-0.084-0.056-0.18-0.096-0.268-0.148c-0.456-0.252-0.932-0.46-1.44-0.62c-0.148-0.052-0.304-0.104-0.46-0.144
		c-0.632-0.152-1.276-0.26-1.944-0.26h-12h-4v-4v-4h-4v-4v-4h-12h-3.564c-0.056-0.1-0.1-0.208-0.164-0.304
		c-0.112-0.356-0.252-0.652-0.404-0.94C387.264,134.944,383.972,132,380,132h-40c-4.4,0-8,3.6-8,8h-16v4v12h-32v-1.364
		c0-2.6-1.708-4.424-4-5.5v-0.648v-2.048v-2.048c0-2.568-1.72-4.972-4-6.548v-1.648v-2.048c0-2.536-1.72-4.168-4-5.112V128
		c0-4.4-3.6-8-8-8h-12H92c-4.4,0-8,3.6-8,8v2.048v2.048V156v2.048V160v0.096v1.952V164v0.096v1.952v2.048V176v2.048V180v0.096v1.952
		v2.048V352v2.048V356v0.092v1.952v2.048V368v2.048v2.048L125.744,476.364z"/>
</g>
<rect x="84" y="176" style="fill:#333333;" width="348" height="180"/>
<rect x="412" y="176" style="fill:#262626;" width="20" height="180"/>
<path style="fill:#E6E6E6;" d="M84,356v12c0,4.4,3.6,8,8,8h332c4.4,0,8-3.6,8-8v-12H84z"/>
<path style="fill:#CCCCCC;" d="M420,356v12c0,4.4-3.6,8-8,8h12c4.4,0,8-3.6,8-8v-12H420z"/>
<path style="fill:#E6E6E6;" d="M84,156h340c4.4,0,8,3.6,8,8v12H84v-12V156z"/>
<path style="fill:#CCCCCC;" d="M424,156h-12c4.4,0,8,3.6,8,8v12h12v-12C432,159.6,428.4,156,424,156z"/>
<path style="fill:#E6E6E6;" d="M84,156v-28c0-4.4,3.6-8,8-8h172c4.4,0,8,3.6,8,8v28H84z"/>
<path style="fill:#CCCCCC;" d="M264,120h-12c4.4,0,8,3.6,8,8v28h12v-28C272,123.6,268.4,120,264,120z"/>
<g>
	<rect x="84" y="352" style="fill:#1A1A1A;" width="348" height="4"/>
	<rect x="84" y="176" style="fill:#1A1A1A;" width="348" height="4"/>
</g>
<rect x="316" y="140" style="fill:#E6E6E6;" width="88" height="16"/>
<rect x="392" y="140" style="fill:#CCCCCC;" width="12" height="16"/>
<path style="fill:#CC584C;" d="M332,140L332,140c0-4.4,3.6-8,8-8h40c4.4,0,8,3.6,8,8l0,0H332z"/>
<rect x="124" y="132" style="fill:#91D2F2;" width="104" height="12"/>
<path style="fill:#262626;" d="M266,342c-41.908,0-76-34.092-76-76s34.092-76,76-76s76,34.092,76,76S307.908,342,266,342z"/>
<path style="fill:#F5F5F5;" d="M258,342c-41.908,0-76-34.092-76-76s34.092-76,76-76s76,34.092,76,76S299.908,342,258,342z"/>
<circle style="fill:#1A1A1A;" cx="258" cy="266" r="72"/>
<path style="fill:#263740;" d="M258,330c-35.288,0-64-28.712-64-64s28.712-64,64-64s64,28.712,64,64S293.288,330,258,330z"/>
<path style="fill:#2D424D;" d="M258,314c-26.468,0-48-21.532-48-48s21.532-48,48-48s48,21.532,48,48S284.468,314,258,314z"/>
<path style="fill:#344C59;" d="M258,298c-17.644,0-32-14.356-32-32s14.356-32,32-32s32,14.356,32,32S275.644,298,258,298z"/>
<path style="fill:#3C5766;" d="M258,282c-8.824,0-16-7.176-16-16s7.176-16,16-16s16,7.176,16,16S266.824,282,258,282z"/>
<circle style="fill:#2179A6;" cx="258" cy="266" r="8"/>
<path style="opacity:0.2;fill:#FFFFFF;enable-background:new    ;" d="M212.752,311.256c-24.952-24.952-24.952-65.56,0-90.508
	c24.948-24.952,65.556-24.952,90.508,0L212.752,311.256z"/>
<path style="fill:#CCCCCC;" d="M424,156H84v4h346.884C429.492,157.624,426.936,156,424,156z"/>
<circle style="fill:#F5F5F5;" cx="340" cy="200" r="8"/>
<circle style="fill:#CC584C;" cx="340" cy="200" r="4"/>
<g>
</g>
<g>
</g>
<g>
</g>
<g>
</g>
<g>
</g>
<g>
</g>
<g>
</g>
<g>
</g>
<g>
</g>
<g>
</g>
<g>
</g>
<g>
</g>
<g>
</g>
<g>
</g>
<g>
</g>
</svg>
